<svg xmlns="http://www.w3.org/2000/svg" viewBox="0 0 229.17 159"><defs><style>.a,.c{fill:#f9f9f9;}.b,.f,.g,.j,.m,.n{fill:none;}.b,.c,.f,.g,.k,.m,.n{stroke:#2fa960;}.b,.m,.n{stroke-linecap:round;}.b,.c,.f,.g,.j,.k,.m,.n{stroke-miterlimit:10;}.b{stroke-width:1.5px;stroke-dasharray:6.74;}.d,.e,.h{fill:#2fa960;}.d{opacity:0.06;}.f,.m{stroke-width:2px;}.f{stroke-dasharray:7;}.h,.l{opacity:0.11;}.i{fill:#4bb063;}.j{stroke:#4bb063;}.k{fill:#fff;}</style></defs><title>timesheet classic</title><circle class="a" cx="120.81" cy="79.5" r="79.5"/><ellipse class="b" cx="127.07" cy="79.6" rx="101.9" ry="31.5" transform="translate(-8 14.49) rotate(-6.33)"/><path class="c" d="M67.31,39h119a3,3,0,0,1,3,3v75a0,0,0,0,1,0,0h-125a0,0,0,0,1,0,0V42A3,3,0,0,1,67.31,39Z"/><path class="c" d="M72,44.58H182.25a3.16,3.16,0,0,1,3.16,3.16v71.18a0,0,0,0,1,0,0H68.81a0,0,0,0,1,0,0V47.74A3.16,3.16,0,0,1,72,44.58Z"/><path class="d" d="M76,42.58H186.25a3.16,3.16,0,0,1,3.16,3.16v71.18a0,0,0,0,1,0,0H72.81a0,0,0,0,1,0,0V45.74A3.16,3.16,0,0,1,76,42.58Z"/><path class="c" d="M80.89,55.5h92a2.44,2.44,0,0,1,2.44,2.44V67.5a0,0,0,0,1,0,0h-96a0,0,0,0,1,0,0V57.08A1.58,1.58,0,0,1,80.89,55.5Z"/><rect class="c" x="79.31" y="79.5" width="96" height="12"/><rect class="d" x="81.31" y="81" width="94" height="10"/><rect class="c" x="79.31" y="91.5" width="96" height="12"/><rect class="c" x="79.31" y="67.5" width="96" height="12"/><circle class="e" cx="86.31" cy="62" r="2"/><circle class="e" cx="86.31" cy="74" r="2"/><circle class="e" cx="86.31" cy="85" r="2"/><circle class="e" cx="86.31" cy="98" r="2"/><rect class="e" x="95.31" y="61" width="35" height="2"/><rect class="e" x="95.31" y="73" width="35" height="2"/><rect class="e" x="95.31" y="85" width="35" height="2"/><rect class="e" x="95.31" y="97" width="35" height="2"/><rect class="e" x="152.31" y="107" width="23" height="5" rx="0.86"/><line class="f" x1="48.31" y1="28" x2="53.31" y2="23"/><line class="f" x1="53.31" y1="28" x2="48.31" y2="23"/><line class="f" x1="171.31" y1="7" x2="176.31" y2="2"/><line class="f" x1="176.31" y1="7" x2="171.31" y2="2"/><circle class="g" cx="130.81" cy="24.5" r="2"/><circle class="g" cx="143.81" cy="134.5" r="2"/><circle class="g" cx="60.81" cy="140.5" r="3"/><circle class="h" cx="62.31" cy="141" r="3"/><path class="i" d="M164.61,61.19l-1-.28a.26.26,0,0,1,.07-.51h.59a.53.53,0,0,1,.3.09.13.13,0,0,0,.17,0l.31-.31a.13.13,0,0,0,0-.21,1.26,1.26,0,0,0-.77-.27v-.43a.14.14,0,0,0-.14-.14h-.29a.15.15,0,0,0-.14.14v.43h0a1,1,0,0,0-1,1.06,1,1,0,0,0,.75.86l.91.26a.27.27,0,0,1,.18.26.26.26,0,0,1-.26.26h-.59a.57.57,0,0,1-.3-.1.15.15,0,0,0-.17,0l-.31.3a.15.15,0,0,0,0,.22,1.26,1.26,0,0,0,.77.27v.42a.15.15,0,0,0,.14.15h.29a.15.15,0,0,0,.14-.15V63.1a1,1,0,0,0,.94-.65,1,1,0,0,0-.65-1.26Z"/><path class="i" d="M164.61,73.19l-1-.28a.26.26,0,0,1,.07-.51h.59a.53.53,0,0,1,.3.09.13.13,0,0,0,.17,0l.31-.31a.13.13,0,0,0,0-.21,1.26,1.26,0,0,0-.77-.27v-.43a.14.14,0,0,0-.14-.14h-.29a.15.15,0,0,0-.14.14v.43h0a1,1,0,0,0-1,1.06,1,1,0,0,0,.75.86l.91.26a.27.27,0,0,1,.18.26.26.26,0,0,1-.26.26h-.59a.57.57,0,0,1-.3-.1.15.15,0,0,0-.17,0l-.31.3a.15.15,0,0,0,0,.22,1.26,1.26,0,0,0,.77.27v.42a.15.15,0,0,0,.14.15h.29a.15.15,0,0,0,.14-.15V75.1a1,1,0,0,0,.94-.65,1,1,0,0,0-.65-1.26Z"/><path class="i" d="M164.61,85.19l-1-.28a.26.26,0,0,1,.07-.51h.59a.53.53,0,0,1,.3.09.13.13,0,0,0,.17,0l.31-.31a.13.13,0,0,0,0-.21,1.26,1.26,0,0,0-.77-.27v-.43a.14.14,0,0,0-.14-.14h-.29a.15.15,0,0,0-.14.14v.43h0a1,1,0,0,0-1,1.06,1,1,0,0,0,.75.86l.91.26a.27.27,0,0,1,.18.26.26.26,0,0,1-.26.26h-.59a.57.57,0,0,1-.3-.1.15.15,0,0,0-.17,0l-.31.3a.15.15,0,0,0,0,.22,1.26,1.26,0,0,0,.77.27v.42a.15.15,0,0,0,.14.15h.29a.15.15,0,0,0,.14-.15V87.1a1,1,0,0,0,.94-.65,1,1,0,0,0-.65-1.26Z"/><path class="i" d="M164.61,97.19l-1-.28a.26.26,0,0,1,.07-.51h.59a.53.53,0,0,1,.3.09.13.13,0,0,0,.17,0l.31-.31a.13.13,0,0,0,0-.21,1.26,1.26,0,0,0-.77-.27v-.43a.14.14,0,0,0-.14-.14h-.29a.15.15,0,0,0-.14.14v.43h0a1,1,0,0,0-1,1.06,1,1,0,0,0,.75.86l.91.26a.27.27,0,0,1,.18.26.26.26,0,0,1-.26.26h-.59a.57.57,0,0,1-.3-.1.15.15,0,0,0-.17,0l-.31.3a.15.15,0,0,0,0,.22,1.26,1.26,0,0,0,.77.27v.42a.15.15,0,0,0,.14.15h.29a.15.15,0,0,0,.14-.15V99.1a1,1,0,0,0,.94-.65,1,1,0,0,0-.65-1.26Z"/><rect class="j" x="140.81" y="59.5" width="4" height="4" rx="0.7"/><rect class="j" x="147.31" y="59.5" width="4" height="4" rx="0.7"/><rect class="j" x="153.81" y="59.5" width="4" height="4" rx="0.7"/><path class="k" d="M9.37,65.33l10.49,14s2.62-2.75-2.24-9.25S9.37,65.33,9.37,65.33Z"/><path class="k" d="M23.3,70.91C19.16,74,13.18,73,13.18,73s.74-6,4.88-9.12a17.93,17.93,0,0,1,4.65-2.54c2.46-.87,5.48.43,5.48.43a7.33,7.33,0,0,1-.62,4.28A14.54,14.54,0,0,1,23.3,70.91Z"/><line class="g" x1="22.19" y1="61.59" x2="26.7" y2="67.62"/><circle class="g" cx="19.68" cy="68.15" r="2.19"/><g class="l"><path class="e" d="M22.3,69.91C18.16,73,12.18,72,12.18,72s.74-6,4.88-9.12a17.93,17.93,0,0,1,4.65-2.54c2.46-.87,5.48.43,5.48.43a7.33,7.33,0,0,1-.62,4.28A14.54,14.54,0,0,1,22.3,69.91Z"/></g><rect class="c" x="59.31" y="117" width="132" height="5.5" rx="1.36"/><line class="m" x1="44.31" y1="122.94" x2="207.31" y2="122.94"/><line class="m" x1="211.31" y1="123" x2="217.31" y2="123"/><line class="n" x1="11.12" y1="71.23" x2="3.22" y2="77.37"/><line class="n" x1="10.98" y1="75.14" x2="3.08" y2="81.27"/><line class="n" x1="14.4" y1="76.28" x2="6.5" y2="82.41"/><line class="n" x1="1.43" y1="78.98" x2="0.64" y2="79.59"/><line class="n" x1="1.29" y1="82.88" x2="0.5" y2="83.49"/><line class="n" x1="4.71" y1="84.03" x2="3.92" y2="84.64"/></svg>